<?xml version="1.0" encoding="UTF-8"?>
<svg id="management" xmlns="http://www.w3.org/2000/svg" viewBox="0 0 500 500">
  <defs>
    <style>
      .cls-1 {
        fill: #ff6e30;
      }
    </style>
  </defs>
  <path class="cls-1" d="M250.05,370.7h0c-2.1,0-4.1-1-5.3-2.6l-30.7-38.9c-1.2-1.5-1.7-3.4-1.4-5.3l14-89.2,13.4,2.1-13.6,86.2,23.5,29.8,23.5-29.8-13.6-86.2,13.4-2.1,14,89.2c.3,1.9-.2,3.8-1.4,5.3l-30.7,38.9c-1.3,1.6-3.3,2.6-5.3,2.6h.2Z"/>
  <g>
    <path class="cls-1" d="M109.25,268c25.7,0,46.6-20.9,46.6-46.6s-20.9-46.6-46.6-46.6-46.6,20.9-46.6,46.6,20.9,46.6,46.6,46.6ZM109.25,188.4c18.2,0,33,14.8,33,33s-14.8,33-33,33-33-14.8-33-33,14.8-33,33-33ZM390.75,268c25.7,0,46.6-20.9,46.6-46.6s-20.9-46.6-46.6-46.6-46.6,20.9-46.6,46.6,20.9,46.6,46.6,46.6ZM390.75,188.4c18.2,0,33,14.8,33,33s-14.8,33-33,33-33-14.8-33-33,14.8-33,33-33Z"/>
    <path class="cls-1" d="M480.85,370.6l-11.2-59.3c-4.6-24.5-25.2-41.7-50.1-41.7h-57.4c-3.8,0-7.6.4-11.2,1.2-9.8-25.3-33.8-42.2-62-42.2h-77.7c-28.2,0-52.2,16.9-62,42.2-3.7-.8-7.4-1.2-11.2-1.2h-57.4c-24.9,0-45.5,17.2-50.1,41.7l-11.4,59.2c-1.4,7.3.5,14.5,5.2,20.2,4.7,5.7,11.4,8.9,18.9,8.9h413.5c7.4,0,14.1-3.2,18.9-8.9,4.7-5.7,6.6-12.9,5.2-20.2v.1ZM34.85,381.9c-2.2-2.6-3-5.5-2.3-8.9l11.2-59c3.4-17.9,18.5-30.4,36.8-30.4h57.4c2.6,0,5.1.2,7.6.7l-14.9,78.7c-1.6,8.3,0,16.6,4.7,22.6H43.25c-3.4,0-6.2-1.1-8.4-3.8v.1ZM324.75,385.6h-164c-5.3,0-9.8-1.9-13.2-6-3.4-4.1-4.6-8.8-3.6-14l15.1-79.9c4.8-25.4,26.2-43.1,52.1-43.1h77.7c25.9,0,47.3,17.7,52.1,43.1l15.1,79.9c1,5.2-.2,9.8-3.6,13.9s-7.8,6-13.2,6h-14.5v.1ZM465.15,381.9c-2.2,2.7-4.9,3.8-8.4,3.8h-92c4.6-6,6.2-14.4,4.7-22.6l-15-78.7c2.5-.5,5-.6,7.6-.6h57.4c18.2,0,33.4,12.5,36.8,30.4l11.2,59c.6,3.4-.1,6.2-2.3,8.8v-.1ZM250.05,221.7c33.4,0,60.6-27.2,60.6-60.6s-27.2-60.7-60.6-60.7-60.6,27.2-60.6,60.6,27.2,60.6,60.6,60.6v.1ZM250.05,114c25.9,0,47,21.1,47,47s-21.1,47-47,47-47-21.1-47-47,21.1-47,47-47h0Z"/>
  </g>
</svg>