<svg xmlns="http://www.w3.org/2000/svg" viewBox="0 0 528.77 448.16"><g id="Calque_2" data-name="Calque 2"><g id="Calque_3" data-name="Calque 3"><path d="M286.89,126.59V66.06l-40.35,60.53H167.37l-130,195H241.89v60.52l40.35-60.52H361.4l130-195Zm-45,175H74.74l103.33-155H233.2l-75,112.5h83.69Zm20,14.46v-77H195.57l71.31-107v77H333.2Zm88.82-14.46H295.57l75-112.5H286.89v-42.5H454Z" style="fill:#1e1e1e"/><polygon points="454.03 146.59 350.7 301.59 295.57 301.59 370.57 189.09 286.89 189.09 286.89 146.59 454.03 146.59" style="fill:#e8e7e7"/><polygon points="261.88 316.05 261.88 239.08 195.57 239.08 266.88 132.11 266.88 209.08 333.2 209.08 261.88 316.05" style="fill:#863acb"/><polygon points="241.89 259.09 241.89 301.59 74.74 301.59 178.07 146.59 233.2 146.59 158.2 259.09 241.89 259.09" style="fill:#e8e7e7"/></g></g></svg>